<?xml version="1.0" standalone="no"?>
<!DOCTYPE svg PUBLIC "-//W3C//DTD SVG 1.1//EN" "http://www.w3.org/Graphics/SVG/1.1/DTD/svg11.dtd">
<svg width="134mm" height="60mm" viewBox="-67 -30 134 60" xmlns="http://www.w3.org/2000/svg" version="1.1">
<title>OpenSCAD Model</title>
<path d="
M 66.5,-30 L -66.5,-30 L -66.5,30 L 66.5,30 z
M 53.1814,-14.8301 L 52.7762,-14.9618 L 52.4164,-15.1901 L 52.1247,-15.5008 L 51.9194,-15.8742 L 51.8134,-16.2869
 L 51.8134,-16.7131 L 51.9194,-17.1258 L 52.1247,-17.4992 L 52.4164,-17.8099 L 52.7762,-18.0382 L 53.1814,-18.1699
 L 53.6067,-18.1966 L 54.0253,-18.1168 L 54.4109,-17.9353 L 54.7392,-17.6637 L 54.9897,-17.319 L 55.1466,-16.9228
 L 55.2,-16.5 L 55.1466,-16.0772 L 54.9897,-15.681 L 54.7392,-15.3363 L 54.4109,-15.0646 L 54.0253,-14.8832
 L 53.6067,-14.8033 z
M -53.8185,-14.8301 L -54.2238,-14.9618 L -54.5836,-15.1901 L -54.8753,-15.5008 L -55.0806,-15.8742 L -55.1866,-16.2869
 L -55.1866,-16.7131 L -55.0806,-17.1258 L -54.8753,-17.4992 L -54.5836,-17.8099 L -54.2238,-18.0382 L -53.8185,-18.1699
 L -53.3932,-18.1966 L -52.9747,-18.1168 L -52.5891,-17.9353 L -52.2607,-17.6637 L -52.0103,-17.319 L -51.8534,-16.9228
 L -51.8,-16.5 L -51.8534,-16.0772 L -52.0103,-15.681 L -52.2607,-15.3363 L -52.5891,-15.0646 L -52.9747,-14.8832
 L -53.3932,-14.8033 z
M -50.5,9.625 L -50.5,-9.625 L 50.5,-9.625 L 50.5,9.625 z
M -53.8185,18.1699 L -54.2238,18.0382 L -54.5836,17.8099 L -54.8753,17.4992 L -55.0806,17.1258 L -55.1866,16.7131
 L -55.1866,16.2869 L -55.0806,15.8742 L -54.8753,15.5008 L -54.5836,15.1901 L -54.2238,14.9618 L -53.8185,14.8301
 L -53.3932,14.8033 L -52.9747,14.8832 L -52.5891,15.0646 L -52.2607,15.3363 L -52.0103,15.681 L -51.8534,16.0772
 L -51.8,16.5 L -51.8534,16.9228 L -52.0103,17.319 L -52.2607,17.6637 L -52.5891,17.9353 L -52.9747,18.1168
 L -53.3932,18.1966 z
M 53.1814,18.1699 L 52.7762,18.0382 L 52.4164,17.8099 L 52.1247,17.4992 L 51.9194,17.1258 L 51.8134,16.7131
 L 51.8134,16.2869 L 51.9194,15.8742 L 52.1247,15.5008 L 52.4164,15.1901 L 52.7762,14.9618 L 53.1814,14.8301
 L 53.6067,14.8033 L 54.0253,14.8832 L 54.4109,15.0646 L 54.7392,15.3363 L 54.9897,15.681 L 55.1466,16.0772
 L 55.2,16.5 L 55.1466,16.9228 L 54.9897,17.319 L 54.7392,17.6637 L 54.4109,17.9353 L 54.0253,18.1168
 L 53.6067,18.1966 z
" stroke="black" fill="lightgray" stroke-width="0.5"/>
</svg>
