<?xml version="1.0" standalone="no"?>
<!DOCTYPE svg PUBLIC "-//W3C//DTD SVG 1.1//EN" "http://www.w3.org/Graphics/SVG/1.1/DTD/svg11.dtd">
<svg width="72mm" height="107mm" viewBox="0 -76 72 107" xmlns="http://www.w3.org/2000/svg" version="1.1">
<title>OpenSCAD Model</title>
<path d="
M 43.5,-0 L 72,-0 L 72,-62.5 L 43.5,-62.5 L 43.5,-75.75 L 28.5,-75.75
 L 28.5,-62.5 L 0,-62.5 L 0,-42.9342 L 1.25433,-42.9342 L 3.70819,-42.4127 L 6,-41.3923
 L 8.02956,-39.9177 L 9.70819,-38.0534 L 10.9625,-35.8808 L 11.7378,-33.4949 L 12,-31 L 11.7378,-28.5051
 L 10.9625,-26.1192 L 9.70819,-23.9466 L 8.02956,-22.0823 L 6,-20.6077 L 3.70819,-19.5873 L 1.25433,-19.0657
 L 0,-19.0657 L 0,-0 L 28.5,-0 L 28.5,30.75 L 43.5,30.75 z
M 35.8223,-70.0593 L 35.4747,-70.1332 L 35.15,-70.2778 L 34.8625,-70.4866 L 34.6247,-70.7508 L 34.447,-71.0585
 L 34.3371,-71.3965 L 34.3,-71.75 L 34.3371,-72.1034 L 34.447,-72.4415 L 34.6247,-72.7492 L 34.8625,-73.0133
 L 35.15,-73.2222 L 35.4747,-73.3668 L 35.8223,-73.4407 L 36.1777,-73.4407 L 36.5253,-73.3668 L 36.85,-73.2222
 L 37.1375,-73.0133 L 37.3753,-72.7492 L 37.553,-72.4415 L 37.6628,-72.1034 L 37.7,-71.75 L 37.6628,-71.3965
 L 37.553,-71.0585 L 37.3753,-70.7508 L 37.1375,-70.4866 L 36.85,-70.2778 L 36.5253,-70.1332 L 36.1777,-70.0593
 z
M 5.3223,-53.8093 L 4.97467,-53.8832 L 4.64999,-54.0278 L 4.36247,-54.2366 L 4.12466,-54.5008 L 3.94696,-54.8085
 L 3.83714,-55.1465 L 3.79999,-55.5 L 3.83714,-55.8534 L 3.94696,-56.1915 L 4.12466,-56.4992 L 4.36247,-56.7633
 L 4.64999,-56.9722 L 4.97467,-57.1168 L 5.3223,-57.1907 L 5.67769,-57.1907 L 6.02531,-57.1168 L 6.34999,-56.9722
 L 6.63751,-56.7633 L 6.87532,-56.4992 L 7.05302,-56.1915 L 7.16284,-55.8534 L 7.2,-55.5 L 7.16284,-55.1465
 L 7.05302,-54.8085 L 6.87532,-54.5008 L 6.63751,-54.2366 L 6.34999,-54.0278 L 6.02531,-53.8832 L 5.67769,-53.8093
 z
M 63.3223,-53.8093 L 62.9747,-53.8832 L 62.65,-54.0278 L 62.3625,-54.2366 L 62.1247,-54.5008 L 61.947,-54.8085
 L 61.8371,-55.1465 L 61.8,-55.5 L 61.8371,-55.8534 L 61.947,-56.1915 L 62.1247,-56.4992 L 62.3625,-56.7633
 L 62.65,-56.9722 L 62.9747,-57.1168 L 63.3223,-57.1907 L 63.6777,-57.1907 L 64.0253,-57.1168 L 64.35,-56.9722
 L 64.6375,-56.7633 L 64.8753,-56.4992 L 65.053,-56.1915 L 65.1628,-55.8534 L 65.2,-55.5 L 65.1628,-55.1465
 L 65.053,-54.8085 L 64.8753,-54.5008 L 64.6375,-54.2366 L 64.35,-54.0278 L 64.0253,-53.8832 L 63.6777,-53.8093
 z
M 5.3223,-4.80931 L 4.97467,-4.88319 L 4.64999,-5.02776 L 4.36247,-5.23665 L 4.12466,-5.50076 L 3.94696,-5.80853
 L 3.83714,-6.14655 L 3.79999,-6.5 L 3.83714,-6.85344 L 3.94696,-7.19145 L 4.12466,-7.49922 L 4.36247,-7.76334
 L 4.64999,-7.97223 L 4.97467,-8.11679 L 5.3223,-8.19067 L 5.67769,-8.19067 L 6.02531,-8.11679 L 6.34999,-7.97223
 L 6.63751,-7.76334 L 6.87532,-7.49922 L 7.05302,-7.19145 L 7.16284,-6.85344 L 7.2,-6.5 L 7.16284,-6.14655
 L 7.05302,-5.80853 L 6.87532,-5.50076 L 6.63751,-5.23665 L 6.34999,-5.02776 L 6.02531,-4.88319 L 5.67769,-4.80931
 z
M 63.3223,-4.80931 L 62.9747,-4.88319 L 62.65,-5.02776 L 62.3625,-5.23665 L 62.1247,-5.50076 L 61.947,-5.80853
 L 61.8371,-6.14655 L 61.8,-6.5 L 61.8371,-6.85344 L 61.947,-7.19145 L 62.1247,-7.49922 L 62.3625,-7.76334
 L 62.65,-7.97223 L 62.9747,-8.11679 L 63.3223,-8.19067 L 63.6777,-8.19067 L 64.0253,-8.11679 L 64.35,-7.97223
 L 64.6375,-7.76334 L 64.8753,-7.49922 L 65.053,-7.19145 L 65.1628,-6.85344 L 65.2,-6.5 L 65.1628,-6.14655
 L 65.053,-5.80853 L 64.8753,-5.50076 L 64.6375,-5.23665 L 64.35,-5.02776 L 64.0253,-4.88319 L 63.6777,-4.80931
 z
M 35.8223,28.4407 L 35.4747,28.3668 L 35.15,28.2222 L 34.8625,28.0134 L 34.6247,27.7492 L 34.447,27.4415
 L 34.3371,27.1035 L 34.3,26.75 L 34.3371,26.3966 L 34.447,26.0585 L 34.6247,25.7508 L 34.8625,25.4867
 L 35.15,25.2778 L 35.4747,25.1332 L 35.8223,25.0593 L 36.1777,25.0593 L 36.5253,25.1332 L 36.85,25.2778
 L 37.1375,25.4867 L 37.3753,25.7508 L 37.553,26.0585 L 37.6628,26.3966 L 37.7,26.75 L 37.6628,27.1035
 L 37.553,27.4415 L 37.3753,27.7492 L 37.1375,28.0134 L 36.85,28.2222 L 36.5253,28.3668 L 36.1777,28.4407
 z
" stroke="black" fill="lightgray" stroke-width="0.5"/>
</svg>
