<?xml version="1.0" standalone="no"?>
<svg _ngcontent-sti-c113="" id="svg" xmlns="http://www.w3.org/2000/svg" xmlns:xlink="http://www.w3.org/1999/xlink" xmlns:ev="http://www.w3.org/2001/xml-events" style="overflow: hidden; " width="175.6mm" height="123.67846722219899mm" viewBox="0 -123.67846722219899 175.6 123.67846722219899"><defs _ngcontent-sti-c113=""><pattern _ngcontent-sti-c113="" id="grid" width="50" height="50" patternUnits="userSpaceOnUse"/></defs><g id="viewport-20221113171127389" class="svg-pan-zoom_viewport"><!--bindings={
  "ng-reflect-ng-if": "false"
}--><!--bindings={
  "ng-reflect-ng-if": "false"
}--><g _ngcontent-sti-c113="" class="ng-star-inserted"><polygon _ngcontent-sti-c113="" class="primaryColor ng-star-inserted" points="0,0 0,-69.3 175.6,-69.3 175.6,0"/><!--bindings={
  "ng-reflect-ng-for-of": "0,0 0,69.3 175.6,69.3 175.6,0"
}--><polyline _ngcontent-sti-c113="" stroke-width=".5" class="warnColor ng-star-inserted" points="19.3,0 19.3,-69.3"/><polyline _ngcontent-sti-c113="" stroke-width=".5" class="warnColor ng-star-inserted" points="14.3,0 14.3,-69.3"/><polyline _ngcontent-sti-c113="" stroke-width=".5" class="warnColor ng-star-inserted" points="9.3,0 9.3,-69.3"/><polyline _ngcontent-sti-c113="" stroke-width=".5" class="warnColor ng-star-inserted" points="4.300000000000001,0 4.300000000000001,-69.3"/><polyline _ngcontent-sti-c113="" stroke-width=".5" class="warnColor ng-star-inserted" points="0,0 0,-69.3"/><polyline _ngcontent-sti-c113="" stroke-width=".5" class="warnColor ng-star-inserted" points="156.29999999999998,0 156.29999999999998,-69.3"/><polyline _ngcontent-sti-c113="" stroke-width=".5" class="warnColor ng-star-inserted" points="161.29999999999998,0 161.29999999999998,-69.3"/><polyline _ngcontent-sti-c113="" stroke-width=".5" class="warnColor ng-star-inserted" points="166.29999999999998,0 166.29999999999998,-69.3"/><polyline _ngcontent-sti-c113="" stroke-width=".5" class="warnColor ng-star-inserted" points="171.29999999999998,0 171.29999999999998,-69.3"/><polyline _ngcontent-sti-c113="" stroke-width=".5" class="warnColor ng-star-inserted" points="175.6,0 175.6,-69.3"/><polyline _ngcontent-sti-c113="" stroke-width=".5" class="warnColor ng-star-inserted" points="0,-50 175.6,-50"/><polyline _ngcontent-sti-c113="" stroke-width=".5" class="warnColor ng-star-inserted" points="0,-55 175.6,-55"/><polyline _ngcontent-sti-c113="" stroke-width=".5" class="warnColor ng-star-inserted" points="0,-60 175.6,-60"/><polyline _ngcontent-sti-c113="" stroke-width=".5" class="warnColor ng-star-inserted" points="0,-65 175.6,-65"/><polyline _ngcontent-sti-c113="" stroke-width=".5" class="warnColor ng-star-inserted" points="0,-69.3 175.6,-69.3"/><polyline _ngcontent-sti-c113="" stroke-width=".5" class="warnColor ng-star-inserted" points="52.2,-69.3 52.2,-46.5875"/><polyline _ngcontent-sti-c113="" stroke-width=".5" class="warnColor ng-star-inserted" points="123.39999999999999,-69.3 123.39999999999999,-46.5875"/><polyline _ngcontent-sti-c113="" stroke-width=".5" class="warnColor ng-star-inserted" points="87.8,-69.3 87.8,-46.5875"/><polyline _ngcontent-sti-c113="" stroke-width=".5" class="warnColor ng-star-inserted" points="61.699999999999996,-69.3 61.699999999999996,-57.15"/><polyline _ngcontent-sti-c113="" stroke-width=".5" class="warnColor ng-star-inserted" points="113.9,-69.3 113.9,-57.15"/><polyline _ngcontent-sti-c113="" stroke-width=".5" class="warnColor ng-star-inserted" points="0,-34.65 22.712500000000002,-34.65"/><polyline _ngcontent-sti-c113="" stroke-width=".5" class="warnColor ng-star-inserted" points="0,-26.1 12.15,-26.1"/><polyline _ngcontent-sti-c113="" stroke-width=".5" class="warnColor ng-star-inserted" points="0,-43.199999999999996 12.15,-43.199999999999996"/><polyline _ngcontent-sti-c113="" stroke-width=".5" class="warnColor ng-star-inserted" points="175.6,-34.65 152.8875,-34.65"/><polyline _ngcontent-sti-c113="" stroke-width=".5" class="warnColor ng-star-inserted" points="175.6,-26.1 163.45,-26.1"/><polyline _ngcontent-sti-c113="" stroke-width=".5" class="warnColor ng-star-inserted" points="175.6,-43.199999999999996 163.45,-43.199999999999996"/><!--bindings={
  "ng-reflect-ng-for-of": "19.3,0 19.3,69.3,14.3,0 14.3,6"
}--></g><!--bindings={
  "ng-reflect-ng-if": "true"
}--><!--bindings={
  "ng-reflect-ng-if": "false"
}--><!--bindings={
  "ng-reflect-ng-if": "false"
}--><!--bindings={
  "ng-reflect-ng-if": "false"
}--></g></svg>